<svg fill="none" height="512" viewBox="0 0 24 24" width="512" xmlns="http://www.w3.org/2000/svg"><g fill="rgb(0,0,0)"><path d="m2.75 12c0-5.10863 4.14137-9.25 9.25-9.25 5.1086 0 9.25 4.14137 9.25 9.25 0 1.1403-.206 2.2308-.5822 3.2375-.1449.388.0521.8201.4401.9651.388.1449.8201-.0521.965-.4401.438-1.172.6771-2.4402.6771-3.7625 0-5.93706-4.8129-10.75-10.75-10.75-5.93706 0-10.75 4.81294-10.75 10.75 0 5.9371 4.81294 10.75 10.75 10.75.5473 0 1.0855-.041 1.6116-.1201.4096-.0616.6917-.4436.6301-.8532-.0617-.4096-.4437-.6917-.8533-.6301-.4524.0681-.9161.1034-1.3884.1034-5.10863 0-9.25-4.1414-9.25-9.25z"/><path d="m16 18.25c-.4142 0-.75.3358-.75.75s.3358.75.75.75h1.25v1.25c0 .4142.3358.75.75.75s.75-.3358.75-.75v-1.25h1.25c.4142 0 .75-.3358.75-.75s-.3358-.75-.75-.75h-1.25v-1.25c0-.4142-.3358-.75-.75-.75s-.75.3358-.75.75v1.25z"/><path d="m9.63048 8.34735c.23513-.13313.52372-.12949.75542.00953l5 3.00002c.2259.1355.3641.3797.3641.6431s-.1382.5076-.3641.6431l-5 3c-.2317.139-.52029.1427-.75542.0095-.23514-.1331-.38048-.3824-.38048-.6526v-6c0-.2702.14534-.51952.38048-.65265z"/></g></svg>